#!OML:ASF F:\VICON\USERDATA\INSTALL\rory3\rory3.ASF
:FULLY-SPECIFIED
:DEGREES
737
root -6.72055 16.901 9.7646 264.245 256.331 125.146
lowerback 39.6064 2.02578 -6.559
upperback 13.0544 -1.8958 -3.52069
thorax -4.59718 -1.55869 0.39542
lowerneck -22.9993 2.58241 -10.942
upperneck 19.6401 6.23463 4.07069
head 9.52561 2.50987 4.09369
rclavicle 2.8625e-014 -3.53837e-014
rhumerus -25.3264 13.3575 -85.7813
rradius 60.0341
rwrist -2.51498
rhand -17.5209 10.2586
rfingers 7.12502
rthumb 8.7327 -19.5408
lclavicle 2.8625e-014 -3.53837e-014
lhumerus 44.2162 19.3747 77.512
lradius 22.3583
lwrist 11.4221
lhand -35.7443 44.5266
lfingers 7.12502
lthumb -8.86309 74.3204
rfemur -42.9449 -16.0942 31.8483
rtibia 54.4333
rfoot -19.8038 4.52926
rtoes -10.5844
lfemur -68.4799 9.02602 -11.494
ltibia 41.3828
lfoot 0.847039 -3.67064
ltoes -20.4545
738
root -6.79195 16.9004 9.83069 263.906 256.065 126.398
lowerback 40.1565 2.01996 -6.13501
upperback 13.1282 -1.84253 -3.80694
thorax -4.71619 -1.5103 -0.141361
lowerneck -23.0692 2.41725 -9.96022
upperneck 19.2149 5.69976 4.01745
head 9.46091 2.3524 3.83859
rclavicle 0 1.39149e-014
rhumerus -25.2014 12.7376 -86.1468
rradius 60.4542
rwrist -2.6088
rhand -17.4891 10.3569
rfingers 7.12502
rthumb 8.76335 -19.4411
lclavicle 0 1.39149e-014
lhumerus 45.5307 18.5855 77.1658
lradius 22.1197
lwrist 11.0541
lhand -36.1748 44.1063
lfingers 7.12502
lthumb -9.27851 73.8822
rfemur -43.2903 -16.6511 31.9987
rtibia 53.6986
rfoot -19.7849 4.35197
rtoes -13.256
lfemur -69.3777 8.62225 -11.432
ltibia 41.679
lfoot 0.650666 -3.41907
ltoes -19.754
739
root -6.86249 16.9015 9.88467 264.624 255.94 126.665
lowerback 40.4426 1.80002 -6.70192
upperback 13.1512 -2.31847 -3.65757
thorax -4.72723 -1.74883 0.478498
lowerneck -23.7455 2.50726 -10.8604
upperneck 19.2247 6.15495 4.28544
head 9.50951 2.53067 4.15459
rclavicle 1.33583e-013 1.1609e-013
rhumerus -24.6778 14.3738 -85.9967
rradius 60.7186
rwrist -2.90082
rhand -17.3587 10.5732
rfingers 7.12502
rthumb 8.88923 -19.2195
lclavicle 1.33583e-013 1.1609e-013
lhumerus 46.2166 19.9524 76.9269
lradius 21.998
lwrist 10.6025
lhand -36.2272 44.2452
lfingers 7.12502
lthumb -9.32907 74.0188
rfemur -43.6899 -16.9332 32.1073
rtibia 52.8622
rfoot -19.9357 4.62242
rtoes -16.3012
lfemur -70.303 8.34801 -11.2255
ltibia 42.0244
lfoot 0.555386 -2.86412
ltoes -16.3334
740
root -6.93265 16.8955 9.91739 267.98 255.758 124.33
lowerback 40.3952 2.19163 -7.64522
upperback 13.1745 -2.17681 -3.39508
thorax -4.6287 -1.72262 1.17542
lowerneck -23.9987 2.55886 -11.2135
upperneck 18.8645 6.41378 4.14795
head 9.40058 2.62694 4.1889
rclavicle -1.90833e-014 2.78299e-015
rhumerus -24.1822 15.264 -85.8022
rradius 60.9025
rwrist -3.0397
rhand -17.5223 10.572
rfingers 7.12502
rthumb 8.73138 -19.2274
lclavicle -1.90833e-014 2.78299e-015
lhumerus 47.1022 20.8081 76.9568
lradius 21.8113
lwrist 10.0669
lhand -36.3544 44.3008
lfingers 7.12502
lthumb -9.45178 74.0688
rfemur -44.0403 -16.3824 32.3707
rtibia 51.9326
rfoot -19.9283 5.26196
rtoes -16.6016
lfemur -71.3296 8.93139 -11.0753
ltibia 42.4053
lfoot 0.315723 -2.58695
ltoes -14.6641
741
root -7.00378 16.8984 9.95742 271.103 255.467 122.201
lowerback 40.3945 3.18513 -7.8431
upperback 13.2614 -1.1044 -3.41285
thorax -4.57532 -1.23892 0.856179
lowerneck -23.5594 2.27633 -9.3149
upperneck 18.1881 5.50389 3.34106
head 9.24508 2.27514 3.45441
rclavicle -1.04958e-013 -1.22054e-013
rhumerus -24.1698 13.2828 -85.9181
rradius 61.2746
rwrist -3.14655
rhand -17.9456 9.81846
rfingers 7.12502
rthumb 8.32288 -19.9976
lclavicle -1.04958e-013 -1.22054e-013
lhumerus 48.7331 19.0547 77.1408
lradius 21.5203
lwrist 9.62126
lhand -36.7323 44.482
lfingers 7.12502
lthumb -9.81641 74.2332
rfemur -44.2731 -15.7454 32.6021
rtibia 50.9475
rfoot -19.7025 6.21598
rtoes -15.4182
lfemur -72.333 9.43486 -10.8833
ltibia 42.8263
lfoot -0.00175017 -2.3016
ltoes -14.7916
742
root -7.07362 16.9086 10.015 272.359 255.216 121.897
lowerback 40.6962 3.22281 -8.20024
upperback 13.2492 -1.21635 -3.29903
thorax -4.65364 -1.30012 1.19485
lowerneck -23.5899 2.35858 -9.56431
upperneck 17.6899 5.70618 3.3223
head 9.05587 2.37271 3.49834
rclavicle -3.49861e-014 -5.96354e-015
rhumerus -23.8126 14.0229 -85.7976
rradius 61.5725
rwrist -3.75451
rhand -18.1667 9.33381
rfingers 7.12502
rthumb 8.10946 -20.4906
lclavicle -3.49861e-014 -5.96354e-015
lhumerus 49.6493 19.7802 77.2169
lradius 21.412
lwrist 9.10761
lhand -37.064 44.8619
lfingers 7.12502
lthumb -10.1363 74.5978
rfemur -44.4001 -15.1991 32.5336
rtibia 49.9708
rfoot -19.5458 6.95994
rtoes -14.3632
lfemur -73.2681 9.33988 -10.6762
ltibia 43.2606
lfoot -0.229186 -1.77278
ltoes -14.7257
743
root -7.14308 16.8947 10.0676 273.597 254.905 121.691
lowerback 40.986 3.22918 -8.52377
upperback 13.1907 -1.34513 -3.16607
thorax -4.77721 -1.36282 1.54432
lowerneck -23.6847 2.41377 -10.0177
upperneck 17.2144 5.89686 3.53378
head 8.87177 2.47918 3.65415
rclavicle -6.04305e-014 -1.50082e-014
rhumerus -23.4446 14.6611 -85.6776
rradius 61.842
rwrist -4.30304
rhand -18.3338 9.60231
rfingers 7.12502
rthumb 7.94815 -20.2283
lclavicle -6.04305e-014 -1.50082e-014
lhumerus 50.6586 20.569 77.3763
lradius 21.209
lwrist 8.47726
lhand -37.2781 44.9013
lfingers 7.12502
lthumb -10.3429 74.6269
rfemur -44.6883 -14.8699 32.6237
rtibia 49.0846
rfoot -19.3944 7.88124
rtoes -12.7367
lfemur -74.3707 9.27884 -10.4727
ltibia 43.715
lfoot -0.350291 -1.29845
ltoes -16.5811
